<?xml version="1.0" encoding="UTF-8" standalone="no"?>
<svg width="108px" height="162px" viewBox="0 0 108 162" version="1.1" xmlns="http://www.w3.org/2000/svg" xmlns:xlink="http://www.w3.org/1999/xlink">
    <!-- Generator: Sketch 41.2 (35397) - http://www.bohemiancoding.com/sketch -->
    <title>noun_694143_cc</title>
    <desc>Created with Sketch.</desc>
    <defs></defs>
    <g id="Welcome" stroke="none" stroke-width="1" fill="none" fill-rule="evenodd">
        <g id="Tablet-Portrait" transform="translate(-7.000000, -675.000000)" fill="#08B8B0">
            <g id="noun_694143_cc" transform="translate(7.000000, 675.000000)">
                <g id="Group">
                    <path d="M46.2169676,14.3064935 C41.1520944,14.3064935 36.9313668,18.5142857 36.9313668,23.5636364 C36.9313668,28.612987 41.1520944,32.8207792 46.2169676,32.8207792 C47.4831859,32.8207792 48.3273314,31.7688312 48.3273314,30.7168831 C48.3273314,29.6649351 47.2721495,28.612987 46.2169676,28.612987 C43.4734946,28.612987 41.3631308,26.5090909 41.3631308,23.774026 C41.3631308,21.038961 43.4734946,18.9350649 46.2169676,18.9350649 C51.2818407,18.9350649 55.5025684,14.7272727 55.5025684,9.67792208 C55.5025684,4.62857143 51.2818407,0.420779221 46.2169676,0.420779221 C44.9507493,0.420779221 44.1066038,1.47272727 44.1066038,2.52467532 C44.1066038,3.78701299 45.1617857,4.62857143 46.2169676,4.62857143 C48.9604405,4.62857143 51.0708044,6.73246753 51.0708044,9.46753247 C51.0708044,12.2025974 48.9604405,14.3064935 46.2169676,14.3064935 Z" id="Shape"></path>
                    <path d="M68.1647513,14.3064935 C63.0998781,14.3064935 58.8791505,18.5142857 58.8791505,23.5636364 C58.8791505,28.612987 63.0998781,32.8207792 68.1647513,32.8207792 C69.4309696,32.8207792 70.2751151,31.7688312 70.2751151,30.7168831 C70.2751151,29.6649351 69.2199332,28.612987 68.1647513,28.612987 C65.4212783,28.612987 63.3109145,26.5090909 63.3109145,23.774026 C63.3109145,21.038961 65.4212783,18.9350649 68.1647513,18.9350649 C73.2296244,18.9350649 77.4503521,14.7272727 77.4503521,9.67792208 C77.4503521,4.62857143 73.2296244,0.420779221 68.1647513,0.420779221 C66.898533,0.420779221 66.0543875,1.47272727 66.0543875,2.52467532 C66.0543875,3.78701299 67.1095694,4.62857143 68.1647513,4.62857143 C70.9082242,4.62857143 73.0185881,6.73246753 73.0185881,9.46753247 C73.0185881,12.2025974 70.9082242,14.3064935 68.1647513,14.3064935 Z" id="Shape"></path>
                    <path d="M107.839591,126.023377 L102.563681,110.454545 C102.352645,109.823377 101.930572,109.402597 101.5085,109.192208 C101.086427,108.981818 100.453318,108.981818 99.8202085,108.981818 L55.5025684,123.919481 L9.07456441,110.454545 C8.44145527,110.244156 8.0193825,110.454545 7.38627336,110.664935 C6.9642006,110.875325 6.54212783,111.296104 6.33109145,111.927273 L1.68829105,127.706494 C1.26621829,128.758442 2.11036382,130.020779 3.16554573,130.231169 L21.1036382,135.490909 L1.68829105,142.012987 C1.05518191,142.223377 0.633109145,142.644156 0.422072763,143.064935 C0.211036382,143.485714 0.211036382,144.116883 0.211036382,144.748052 L5.48694592,160.316883 C5.69798231,160.948052 6.12005507,161.368831 6.54212783,161.579221 C6.75316421,161.78961 7.17523698,161.78961 7.38627336,161.78961 C7.59730974,161.78961 7.80834612,161.78961 8.0193825,161.579221 L54.0253137,146.01039 L100.031245,159.264935 L100.664354,159.264935 C101.086427,159.264935 101.297463,159.264935 101.719536,159.054545 C102.141609,158.844156 102.563681,158.423377 102.774718,157.792208 L107.417518,142.012987 C107.628555,141.381818 107.417518,140.961039 107.206482,140.32987 C106.995446,139.698701 106.573373,139.488312 105.940264,139.277922 L88.6352803,134.649351 L106.573373,128.548052 C107.628555,128.337662 108.261664,127.075325 107.839591,126.023377 Z M9.91870994,115.293506 L48.3273314,126.444156 L28.0678388,133.176623 L6.54212783,126.864935 L9.91870994,115.293506 Z M99.6091721,154.846753 L61.8336598,143.906494 L82.0931525,137.174026 L103.196791,143.275325 L99.6091721,154.846753 Z M9.28560079,157.161039 L5.27590954,145.58961 L99.3981358,113.820779 L103.407827,125.392208 L9.28560079,157.161039 Z" id="Shape"></path>
                    <path d="M55.291532,115.924675 L55.291532,115.924675 L55.7136048,115.924675 C56.3467139,115.924675 56.9798231,115.924675 57.4018958,115.714286 C71.5413334,114.662338 82.7262616,102.880519 82.7262616,88.3636364 C82.7262616,73.8467532 57.8239686,43.761039 56.7687867,42.4987013 C55.9246411,41.4467532 54.2363501,41.4467532 53.6032409,42.4987013 C52.7590954,43.761039 27.8568024,73.8467532 27.8568024,88.3636364 C27.8568024,103.511688 40.3079489,115.924675 55.291532,115.924675 Z M56.1356775,111.716883 L55.7136048,111.716883 C49.5935497,111.716883 44.7397129,106.667532 44.7397129,100.776623 C44.7397129,96.5688312 51.0708044,87.1012987 55.7136048,81 C60.5674415,87.1012987 66.6874966,96.5688312 66.6874966,100.776623 C66.898533,106.667532 62.0446962,111.506494 56.1356775,111.716883 Z M55.291532,47.1272727 C63.0998781,56.8051948 78.505534,78.2649351 78.505534,88.3636364 C78.505534,95.7272727 74.9179155,102.249351 69.642006,106.667532 C70.4861515,104.774026 70.9082242,102.880519 70.9082242,100.566234 C70.9082242,92.7818182 58.6681141,77.8441558 57.1908594,76.161039 C56.3467139,75.1090909 54.6584229,75.1090909 54.0253137,76.161039 C52.548059,77.8441558 40.3079489,92.7818182 40.3079489,100.566234 C40.3079489,103.090909 40.941058,105.405195 41.99624,107.509091 C35.8761849,103.301299 31.8664936,96.3584416 31.8664936,88.3636364 C32.07753,78.2649351 47.6942223,56.8051948 55.291532,47.1272727 Z" id="Shape"></path>
                </g>
            </g>
        </g>
    </g>
</svg>