<?xml version="1.0" encoding="UTF-8" standalone="no"?>
<svg width="68px" height="68px" viewBox="0 0 68 68" version="1.1" xmlns="http://www.w3.org/2000/svg" xmlns:xlink="http://www.w3.org/1999/xlink">
    <!-- Generator: Sketch 41.2 (35397) - http://www.bohemiancoding.com/sketch -->
    <title>noun_569778_cc</title>
    <desc>Created with Sketch.</desc>
    <defs></defs>
    <g id="Welcome" stroke="none" stroke-width="1" fill="none" fill-rule="evenodd">
        <g id="Tablet-Portrait" transform="translate(-47.000000, -453.000000)" fill="#FFFFFF">
            <g id="noun_569778_cc" transform="translate(47.000000, 453.000000)">
                <g id="Group">
                    <g id="Shape">
                        <path d="M51.5394667,16.1182667 C51.7502667,16.1991111 51.8885333,16.4031111 51.8885333,16.6290222 C51.8885333,16.8572 51.7502667,17.0589333 51.5394667,17.1397778 C50.6622667,17.4797778 49.9097333,18.0766667 49.3785778,18.8375111 C48.8496889,19.5983556 48.5384,20.5201333 48.5384,21.5182222 C48.5384,22.5185778 48.8496889,23.4396 49.3785778,24.2012 C49.9097333,24.9620444 50.6615111,25.5566667 51.5394667,25.8966667 C51.7502667,25.9775111 51.8885333,26.1815111 51.8885333,26.4074222 C51.8885333,26.6333333 51.7502667,26.8373333 51.5394667,26.9181778 C50.8927111,27.1705333 50.1862667,27.3088 49.4488444,27.3065333 C47.8538667,27.3088 46.4016889,26.6597778 45.356,25.6133333 C44.3095556,24.5668889 43.6605333,23.1169778 43.6605333,21.5182222 C43.6605333,18.3222222 46.2536,15.7291556 49.4496,15.7291556 C50.1862667,15.7299111 50.8927111,15.8681778 51.5394667,16.1182667 Z M49.8198222,16.8420889 C49.6966667,16.8307556 49.5742667,16.8269778 49.4488444,16.8269778 C48.1523111,16.8269778 46.9834667,17.3513333 46.1319556,18.1998222 C45.2812,19.0505778 44.7568444,20.2224444 44.7568444,21.5189778 C44.7568444,22.8177778 45.2812,23.9866222 46.1319556,24.8381333 C46.9827111,25.6888889 48.1523111,26.2109778 49.4488444,26.2132444 C49.5735111,26.2132444 49.6966667,26.2064444 49.8198222,26.1958667 C49.3,25.8188444 48.8481778,25.3556889 48.4794667,24.8290667 C47.8259111,23.8921778 47.4420889,22.7475111 47.4420889,21.5189778 C47.4420889,20.2904444 47.8259111,19.1480444 48.4794667,18.2111556 C48.8481778,17.6845333 49.3,17.2213778 49.8198222,16.8420889 Z"></path>
                        <path d="M32.2803556,43.8010667 L18.3252444,61.6805333 C20.3282222,62.8191556 22.4664444,63.7447111 24.7104444,64.4315111 L32.2803556,43.8010667 Z M55.0210667,41.4732 C54.9485333,41.4732 54.876,41.4580889 54.8102667,41.4316444 C54.7860889,41.4203111 54.7641778,41.4097333 54.7422667,41.3968889 C54.7203556,41.3840444 54.7007111,41.3704444 54.6810667,41.3553333 C54.6636889,41.3424889 54.6463111,41.3266222 54.6304444,41.3115111 C54.5843556,41.2631556 54.5473333,41.2102667 54.5231556,41.1513333 C54.5140889,41.1339556 54.5080444,41.1165778 54.5012444,41.0961778 C54.4967111,41.0788 54.4899111,41.0614222 54.4861333,41.0432889 C54.4838667,41.0387556 54.4838667,41.0364889 54.4838667,41.0319556 C54.4816,41.0145778 54.4793333,40.9987111 54.4770667,40.9836 C54.4642222,40.8868889 54.4793333,40.7841333 54.5254222,40.6919556 C54.5322222,40.6745778 54.5405333,40.6587111 54.5496,40.6436 C54.5669778,40.6171556 54.5843556,40.5907111 54.6062667,40.5665333 C54.7226222,40.4328 54.8231111,40.2854667 54.9047111,40.1275556 C55.0973778,39.7762222 55.2054222,39.3727556 55.2054222,38.9428444 C55.2054222,38.2515111 54.9266222,37.6334667 54.4748,37.1793778 C54.0229778,36.7275556 53.4019111,36.4510222 52.7136,36.4487556 C52.3101333,36.4510222 51.9308444,36.5454667 51.5946222,36.7139556 C51.5900889,36.7162222 51.5878222,36.7162222 51.5855556,36.7184889 C51.476,36.7736444 51.3702222,36.8371111 51.272,36.9073778 C50.864,37.1967556 50.5481778,37.6047556 50.3728889,38.0784889 C50.2678667,38.3633333 49.9520444,38.5084 49.6687111,38.4033778 C49.3838667,38.2983556 49.2388,37.9825333 49.3438222,37.6992 C49.5984444,37.0124 50.0525333,36.4268444 50.6380889,36.0120444 C50.6668,35.9901333 50.6970222,35.9704889 50.728,35.9508444 C50.4975556,35.2731111 50.0789778,34.6830222 49.5327111,34.2417778 C48.8874667,33.7196889 48.0699556,33.4084 47.1723556,33.4084 C46.1327111,33.4084 45.1958222,33.8277333 44.5135556,34.5092444 C43.8554667,35.1696 43.4406667,36.0687111 43.4142222,37.0690667 L56.9092,56.0584444 C62.4194667,50.3396444 65.8043556,42.5702667 65.8066222,34 C65.8066222,33.3290667 65.7847111,32.6641778 65.7431556,32.0038222 C64.3831556,32.1526667 63.1659556,32.7805333 62.2623111,33.7151556 C61.2596889,34.7525333 60.6454222,36.1586222 60.6454222,37.7120444 C60.6454222,38.1593333 60.6960444,38.5915111 60.7927556,39.0063111 C62.0824889,39.7452444 62.9800889,41.0924 63.0956889,42.6586667 C63.1176,42.9593778 62.8894222,43.2223111 62.5887111,43.2442222 C62.2857333,43.2661333 62.0228,43.0402222 62.0008889,42.7372444 C61.9087111,41.4822667 61.1539111,40.4101333 60.0840444,39.8699111 C60.0817778,39.8676444 60.0772444,39.8676444 60.0749778,39.8653778 C60.0704444,39.8631111 60.0659111,39.8608444 60.0621333,39.8585778 C59.5952,39.6236 59.0663111,39.4921333 58.5049333,39.4921333 C57.9564,39.4921333 57.4388444,39.6168 56.9779556,39.8412 C56.5284,40.0580444 56.1332444,40.3700889 55.8174222,40.7471111 C55.8060889,40.7584444 55.7955111,40.7712889 55.7864444,40.7818667 C55.6791556,40.9133333 55.5801778,41.0538667 55.4925333,41.2027111 C55.4796889,41.2246222 55.4660889,41.2442667 55.4509778,41.2639111 C55.4381333,41.2812889 55.4222667,41.2986667 55.4071556,41.3145333 C55.3875111,41.3319111 55.3678667,41.3492889 55.3482222,41.3651556 C55.3308444,41.378 55.3089333,41.3916 55.2892889,41.4021778 C55.2696444,41.4135111 55.2477333,41.4240889 55.2258222,41.4331556 C55.2039111,41.4422222 55.182,41.4482667 55.1600889,41.4550667 C55.1381778,41.4618667 55.114,41.4664 55.0920889,41.4679111 C55.0671556,41.4709333 55.0452444,41.4732 55.0210667,41.4732 Z M58.0410222,9.95897778 C64.192,16.1092 68,24.616 68,34 C68,43.3862667 64.192,51.8930667 58.0410222,58.0432889 C51.8900444,64.1935111 43.384,68.0022667 34,68 C24.6137333,68.0022667 16.1069333,64.1942667 9.95671111,58.0432889 C3.80648889,51.8923111 -0.00226666667,43.3862667 1.28570877e-13,34 C-0.00226666667,24.616 3.80573333,16.1092 9.95671111,9.95897778 C16.1076889,3.80875556 24.6137333,0 34,0 C43.384,0 51.8908,3.808 58.0410222,9.95897778 Z M61.4742667,32.9512889 C62.5554667,31.8323111 64.0212444,31.0820444 65.6570222,30.9090222 C64.9286667,23.3587556 61.5641778,16.5852 56.4898667,11.5093778 C50.7302667,5.75355556 42.7848444,2.19564444 34,2.19337778 C25.2128889,2.19564444 17.2674667,5.75355556 11.5093778,11.5093778 C5.75128889,17.2697333 2.19337778,25.2151556 2.19337778,34 C2.19337778,34.5553333 2.20622222,35.1076444 2.23493333,35.6539111 C2.82955556,35.4589778 3.468,35.3554667 4.1276,35.3554667 C4.58168889,35.3554667 5.02444444,35.4038222 5.45057778,35.5005333 C5.94848889,34.2236444 6.79546667,33.1250667 7.87213333,32.3173778 C9.08706667,31.4046667 10.6012,30.8652 12.2354667,30.8652 C13.6347556,30.8652 14.9441333,31.2603556 16.0548,31.9464 C17.0483556,32.5584 17.8817333,33.4031111 18.4808889,34.4057333 C18.7574222,34.3619111 19.0422667,34.34 19.3316444,34.34 C20.6168444,34.34 21.8038222,34.7789778 22.7429778,35.5133778 C23.4033333,36.0286667 23.9405333,36.6890222 24.3137778,37.4483556 L33.3268,24.7633333 L31.7340889,22.5238667 C31.5588,22.2760444 31.6154667,21.9337778 31.8632889,21.7584889 C32.1088444,21.5832 32.4511111,21.6398667 32.6264,21.8876889 L33.9977333,23.8181333 L35.3690667,21.8876889 C35.5443556,21.6421333 35.8866222,21.5824444 36.1344444,21.7584889 C36.38,21.9337778 36.4396889,22.2760444 36.2636444,22.5238667 L34.6709333,24.7633333 L42.5151111,35.8012444 C42.7432889,35.0116889 43.1709333,34.3029778 43.7368444,33.7370667 C44.6140444,32.8576 45.832,32.3136 47.1716,32.3136 C48.3253333,32.3136 49.3891556,32.7170667 50.2225333,33.3925333 C50.8957333,33.9388 51.4223556,34.6603556 51.7298667,35.4914667 C52.0411556,35.4015556 52.3728444,35.3532 52.7128444,35.3532 C54.6961778,35.3554667 56.3017333,36.9610222 56.3017333,38.9443556 L56.3017333,38.9572 C56.9552889,38.5998222 57.7055556,38.3958222 58.5041778,38.3958222 C58.8789333,38.3958222 59.2453778,38.4419111 59.5967111,38.5272889 C59.5634667,38.2598222 59.5483556,37.9878222 59.5483556,37.7112889 C59.5460889,35.8647111 60.2812444,34.1820889 61.4742667,32.9512889 Z M56.1241778,56.848 L42.4297333,37.5775556 C42.4274667,37.5707556 42.4229333,37.5662222 42.4184,37.5624444 C42.4116,37.5496 42.4032889,37.5382667 42.3942222,37.5254222 C42.3942222,37.5231556 42.3919556,37.5208889 42.3896889,37.5186222 L34.5462667,26.4807111 L34.5462667,40.6791111 L34.5462667,40.7078222 L34.5462667,40.7539111 L34.5462667,65.8020889 C42.9299111,65.6615556 50.5172,62.2789333 56.1241778,56.848 Z M33.4492,65.8020889 L33.4492,43.7965333 L25.7674667,64.7314667 C28.2222667,65.3872889 30.7972,65.756 33.4492,65.8020889 Z M33.4492,40.5189333 L33.4492,26.4829778 L24.616,38.9179111 C24.6092,38.9292444 24.6031556,38.9398222 24.5940889,38.9511556 C24.5918222,38.9534222 24.5895556,38.9556889 24.5895556,38.9579556 L11.8758222,56.848 C13.5425778,58.4648889 15.3853778,59.8989333 17.3724889,61.1191556 L33.4492,40.5189333 Z M11.0908,56.0607111 L23.5612444,38.5076444 C23.2869778,37.6568889 22.7580889,36.9172 22.0675111,36.3777333 C21.3127111,35.7876444 20.3652444,35.4370667 19.3324,35.4370667 C18.9856,35.4370667 18.6524,35.4786222 18.3320444,35.5511556 C18.3297778,35.5534222 18.3275111,35.5534222 18.3252444,35.5534222 L18.3229778,35.5556889 C17.5840444,35.7249333 16.9168889,36.0800444 16.3683556,36.5688889 C16.1424444,36.7706222 15.7956444,36.7509778 15.5939111,36.5250667 C15.3921778,36.2991556 15.4118222,35.9523556 15.6377333,35.7506222 C16.1424444,35.3033333 16.728,34.9436889 17.3709778,34.7019111 C16.8798667,33.9667556 16.2323556,33.3441778 15.4783111,32.8787556 C14.5376444,32.2977333 13.4269778,31.9615111 12.2362222,31.9615111 C10.8452444,31.9615111 9.56457778,32.4201333 8.53097778,33.1945778 C7.63413333,33.8677778 6.92542222,34.7782222 6.49777778,35.8337333 C7.51551111,36.2568444 8.39044444,36.9504444 9.04022222,37.8208444 C9.79955556,38.8408444 10.2513778,40.1086667 10.2513778,41.4777333 C10.2513778,42.5105778 9.99448889,43.4844889 9.54266667,44.3405333 C9.40213333,44.608 9.0712,44.7115111 8.80373333,44.5687111 C8.534,44.4281778 8.43275556,44.0972444 8.57328889,43.8275111 C8.94426667,43.1256 9.15431111,42.3292444 9.15431111,41.4784889 C9.15431111,40.3512 8.7856,39.3153333 8.16075556,38.4774222 C7.53742222,37.6417778 6.66022222,37.0078667 5.64702222,36.6875111 C5.64475556,36.6875111 5.64248889,36.6852444 5.64022222,36.6852444 C5.63795556,36.6852444 5.63568889,36.6829778 5.63342222,36.6829778 C5.16195556,36.5318667 4.65497778,36.4525333 4.12835556,36.4525333 C3.48537778,36.4525333 2.87564444,36.5711556 2.31426667,36.7902667 C2.96102222,44.2506222 6.1812,50.9667556 11.0908,56.0607111 Z"></path>
                    </g>
                </g>
            </g>
        </g>
    </g>
</svg>