<?xml version="1.0" encoding="UTF-8" standalone="no"?>
<svg width="108px" height="140px" viewBox="0 0 108 140" version="1.1" xmlns="http://www.w3.org/2000/svg" xmlns:xlink="http://www.w3.org/1999/xlink">
    <!-- Generator: Sketch 41.2 (35397) - http://www.bohemiancoding.com/sketch -->
    <title>noun_759487_cc</title>
    <desc>Created with Sketch.</desc>
    <defs></defs>
    <g id="Welcome" stroke="none" stroke-width="1" fill="none" fill-rule="evenodd">
        <g id="Tablet-Portrait" transform="translate(-33.000000, -680.000000)" fill="#8B8F06">
            <g id="noun_759487_cc" transform="translate(33.000000, 680.000000)">
                <g id="Group">
                    <g id="Shape">
                        <path d="M34.9392362,36.909662 L39.4333509,36.909662 C45.6912019,36.909662 51.169574,33.6848483 54.2148266,28.8815732 C57.2292524,33.6848483 62.6481726,36.9075404 68.8399661,36.9075404 L73.2856386,36.9075404 C82.7384727,36.9075404 90.4297723,29.4183349 90.4297723,20.2127648 L90.4297723,17.4334846 C90.4297723,16.0862762 89.2935826,14.9936584 87.8975666,14.9936584 L57.5331171,14.9936584 L57.5331171,3.29310088 C57.5331171,1.53430447 56.0556301,0.110718954 54.23024,0.110718954 L43.9340713,0.110718954 C42.1086813,0.110718954 40.6311943,1.53430447 40.6311943,3.29310088 C40.6311943,5.05189729 42.1086813,6.47548281 43.9340713,6.47548281 L50.9251611,6.47548281 L50.9251611,14.9936584 L20.1467509,14.9936584 C18.748533,14.9936584 17.6145452,16.0862762 17.6145452,17.4334846 L17.6145452,20.2148864 C17.6145452,29.4225781 25.3851139,36.909662 34.9392362,36.909662 Z"></path>
                        <path d="M104.729028,40.7030612 L71.0617014,40.7030612 L37.3943748,40.7030612 L3.31088573,40.7030612 C1.91266778,40.7030612 0.77868,41.795679 0.77868,43.1428874 L0.77868,45.9221676 C0.77868,55.1277377 8.54924871,62.6169432 18.103371,62.6169432 L22.6018895,62.6169432 C28.8597406,62.6169432 34.3359107,59.3921295 37.3811633,54.5888544 C40.3933872,59.3942511 45.8145093,62.6169432 52.0063028,62.6169432 L56.4497734,62.6169432 C62.6349611,62.6169432 68.0472756,59.4027374 71.0639033,54.6121919 C74.080531,59.4027374 79.4928455,62.6169432 85.6780332,62.6169432 L90.1193019,62.6169432 C99.5743379,62.6169432 107.265638,55.1277377 107.265638,45.9221676 L107.265638,43.1428874 C107.261234,41.795679 106.125044,40.7030612 104.729028,40.7030612 Z"></path>
                        <path d="M71.0639033,117.822783 L36.9782123,117.822783 C35.5799944,117.822783 34.4460066,118.917523 34.4460066,120.262609 L34.4460066,123.039768 C34.4460066,132.245338 42.2187772,139.734544 51.7728995,139.734544 L56.2692161,139.734544 C65.8233384,139.734544 73.596109,132.245338 73.596109,123.039768 L73.596109,120.262609 C73.596109,118.915401 72.4599193,117.822783 71.0639033,117.822783 Z"></path>
                        <path d="M104.729028,66.4103425 L71.0617014,66.4103425 L37.3943748,66.4103425 L3.31088573,66.4103425 C1.91266778,66.4103425 0.77868,67.5029602 0.77868,68.8501686 L0.77868,71.6294488 C0.77868,80.8371405 8.54924871,88.326346 18.103371,88.326346 L22.6018895,88.326346 C28.8597406,88.326346 34.3359107,85.1015323 37.3811633,80.2982572 C40.3933872,85.1036539 45.8145093,88.326346 52.0063028,88.326346 L56.4497734,88.326346 C62.6349611,88.326346 68.0472756,85.1121402 71.0639033,80.3194731 C74.080531,85.1142618 79.4928455,88.326346 85.6780332,88.326346 L90.1193019,88.326346 C99.5743379,88.326346 107.265638,80.8371405 107.265638,71.6294488 L107.265638,68.8501686 C107.261234,67.5008387 106.125044,66.4103425 104.729028,66.4103425 Z"></path>
                        <path d="M87.8953647,92.1133805 L54.2280381,92.1133805 L20.1467509,92.1133805 C18.748533,92.1133805 17.6145452,93.2081199 17.6145452,94.5532066 L17.6145452,97.3346084 C17.6145452,106.540179 25.3873158,114.029384 34.9414381,114.029384 L39.4355528,114.029384 C45.6934038,114.029384 51.1717759,110.802449 54.2170285,105.999174 C57.2314543,110.802449 62.6503746,114.025141 68.8399661,114.025141 L73.2856386,114.025141 C82.7384727,114.025141 90.4297723,106.535935 90.4297723,97.3303653 L90.4297723,94.5532066 C90.4297723,93.2081199 89.2935826,92.1133805 87.8953647,92.1133805 Z"></path>
                    </g>
                </g>
            </g>
        </g>
    </g>
</svg>