<?xml version="1.0" encoding="UTF-8" standalone="no"?>
<svg width="94px" height="158px" viewBox="0 0 94 158" version="1.1" xmlns="http://www.w3.org/2000/svg" xmlns:xlink="http://www.w3.org/1999/xlink">
    <!-- Generator: Sketch 41.2 (35397) - http://www.bohemiancoding.com/sketch -->
    <title>noun_638731_cc</title>
    <desc>Created with Sketch.</desc>
    <defs></defs>
    <g id="Welcome" stroke="none" stroke-width="1" fill="none" fill-rule="evenodd">
        <g id="Tablet-Portrait" transform="translate(-40.000000, -644.000000)" fill="#88BB00">
            <g id="noun_638731_cc" transform="translate(40.000000, 644.000000)">
                <g id="Group">
                    <g id="Shape">
                        <path d="M71.3236649,92.4408329 L49.29063,112.662265 L49.29063,155.351955 C49.29063,156.475368 48.3256796,157.438294 47.1999041,157.438294 C46.0741286,157.438294 45.1091781,156.475368 45.1091781,155.351955 L45.1091781,91.7988827 L28.0617205,77.0340274 C27.2575951,76.2315896 27.0967701,74.9476892 27.9008954,74.1452514 C28.2225456,73.6637887 28.7050208,73.5033012 29.3483211,73.5033012 C29.8307963,73.5033012 30.4740966,73.6637887 30.7957467,73.9847638 L45.4308283,86.5027933 L45.4308283,51.837481 C45.4308283,50.7140681 46.3957787,49.7511427 47.5215542,49.7511427 C48.6473297,49.7511427 49.6122801,50.7140681 49.6122801,51.837481 L49.6122801,107.205688 L68.9112888,89.3915693 C69.2329389,89.0705942 69.8762392,88.9101067 70.3587144,88.9101067 C70.8411896,88.9101067 71.3236649,89.2310818 71.8061401,89.5520569 C72.1277902,90.3544947 72.1277902,91.6383951 71.3236649,92.4408329 Z"></path>
                        <path d="M93.8391749,76.2315896 C93.8391749,99.9837481 75.8267669,120.044693 52.5071314,122.612494 L52.5071314,114.106653 L73.4143908,94.8481463 C75.5051167,92.9222956 75.6659418,89.5520569 73.7360409,87.4657186 C72.7710905,86.3423057 71.4844899,85.8608431 70.0370643,85.7003555 C68.5896386,85.7003555 67.3030381,86.1818182 66.3380876,87.1447435 L52.5071314,99.9837481 L52.5071314,51.837481 C52.5071314,48.9487049 50.0947554,46.5413916 47.1999041,46.5413916 C44.3050528,46.5413916 41.8926767,48.9487049 41.8926767,51.837481 L41.8926767,79.4413408 L32.5648225,71.4169629 C31.439047,70.4540376 30.1524464,70.1330625 28.7050208,70.1330625 C27.2575951,70.29355 25.9709946,70.9355003 25.1668692,71.8984256 C23.2369683,74.1452514 23.5586185,77.3550025 25.8101695,79.2808532 L41.8926767,93.0827831 L41.8926767,122.291519 C18.5730413,119.723718 0.560633195,99.662773 0.560633195,75.9106145 C0.882283339,50.3930929 21.9503678,0 47.3607291,0 C72.7710905,0 93.8391749,50.3930929 93.8391749,76.2315896 Z"></path>
                    </g>
                </g>
            </g>
        </g>
    </g>
</svg>